<?xml version="1.0" encoding="UTF-8" standalone="no"?>
<!DOCTYPE svg PUBLIC "-//W3C//DTD SVG 1.1//EN" "http://www.w3.org/Graphics/SVG/1.1/DTD/svg11.dtd">
<svg width="100%" height="100%" viewBox="0 0 743 743" version="1.1" xmlns="http://www.w3.org/2000/svg" xmlns:xlink="http://www.w3.org/1999/xlink" xml:space="preserve" xmlns:serif="http://www.serif.com/" style="fill-rule:evenodd;clip-rule:evenodd;stroke-linejoin:round;stroke-miterlimit:2;">
    <g transform="matrix(1,0,0,1,-688.753,-1050.61)">
        <path d="M905.751,1709.16C951.697,1733.92 1004.25,1747.98 1060.07,1747.98C1240.02,1747.98 1386.12,1601.88 1386.12,1421.93C1386.12,1241.98 1240.02,1095.88 1060.07,1095.88C880.118,1095.88 734.019,1241.98 734.019,1421.93C734.019,1489.28 754.488,1551.9 789.551,1603.9C800.806,1621.51 801.967,1633.88 796.31,1642.3C794.226,1645.4 791.482,1647.34 787.997,1648.76C779.884,1652.23 770.457,1649.76 765.083,1642.76C717.817,1580.81 688.753,1505.91 688.753,1421.93C688.753,1216.99 855.134,1050.61 1060.07,1050.61C1265.01,1050.61 1431.39,1216.99 1431.39,1421.93C1431.39,1626.86 1265.01,1793.24 1060.07,1793.24C985.432,1793.24 915.909,1771.17 857.661,1733.2L863.495,1716.51C863.634,1715.97 863.797,1715.42 863.987,1714.88L1041.63,1209.88C1044.26,1202.42 1051.3,1197.4 1059.21,1197.36C1067.12,1197.31 1074.22,1202.24 1076.93,1209.67C1125.72,1343.19 1174.94,1480.19 1223.72,1594.94C1226.96,1602.55 1224.83,1611.38 1218.48,1616.67C1212.13,1621.97 1203.06,1622.48 1196.16,1617.93C1196.16,1617.93 1096.2,1552.07 1024.47,1518.94C1008.55,1511.59 994.793,1504.01 983.792,1499.09C982.678,1498.59 981.42,1498.09 980.164,1497.63L905.751,1709.16ZM992.621,1462.22C1004.95,1467.17 1021.15,1476.1 1040.2,1484.9C1080.85,1503.67 1130.32,1532.65 1166.55,1554.88C1130.96,1466.84 1095.21,1369.17 1059.65,1271.69L992.621,1462.22Z" style="fill:rgb(0,190,150);"/>
    </g>
</svg>
